<svg xmlns="http://www.w3.org/2000/svg" viewBox="0 0 200 200" fill="none">
  <!-- Background circle -->
  <circle cx="100" cy="100" r="95" fill="#2563eb" opacity="0.08"/>
  
  <!-- Mountain peaks -->
  <path d="M 30 110 L 60 50 L 80 75 L 100 40 L 120 70 L 140 55 L 170 110 Z" fill="#2563eb" opacity="0.3"/>
  <path d="M 30 110 L 60 50 L 80 75 L 100 40 L 120 70 L 140 55 L 170 110 Z" fill="none" stroke="#2563eb" stroke-width="2" stroke-linejoin="round"/>
  
  <!-- Mountain shadow/depth -->
  <path d="M 60 50 L 80 75 L 100 40 L 100 110 L 60 110 Z" fill="#1e40af" opacity="0.4"/>
  <path d="M 100 40 L 120 70 L 140 55 L 140 110 L 100 110 Z" fill="#3b82f6" opacity="0.3"/>
  
  <!-- Sand base -->
  <path d="M 30 110 L 30 130 Q 100 125, 170 130 L 170 110 Z" fill="#2563eb" opacity="0.2"/>
  
  <!-- "Sandbox" text -->
  <text x="100" y="165" font-family="system-ui, -apple-system, sans-serif" font-size="24" font-weight="600" fill="#2563eb" text-anchor="middle">
    Sandbox
  </text>
</svg>
